<svg width="120" height="120" viewBox="0 0 120 120" fill="none" xmlns="http://www.w3.org/2000/svg">
<g clip-path="url(#clip0_2831_24706)">
<path fill-rule="evenodd" clip-rule="evenodd" d="M60 120C93.1371 120 120 93.1371 120 60C120 26.8629 93.1371 0 60 0C45.133 0 39.4818 17.8318 29 26.7868C16.1188 37.7917 0 41.7299 0 60C0 93.1371 26.8629 120 60 120Z" fill="#F5F5F5"/>
<g filter="url(#filter0_f_2831_24706)">
<path d="M65 108.995C68.6571 108.53 97 80.5173 97 62.5693C97 44.6212 82.6731 31 65 31C47.3269 31 33 44.6212 33 62.5693C33 80.5173 61.3429 109.459 65 108.995Z" fill="#D6D6D7"/>
</g>
<path d="M61 97.9952C64.2 97.5786 89 72.4386 89 56.3314C89 40.2242 76.464 28 61 28C45.536 28 33 40.2242 33 56.3314C33 72.4386 57.8 98.4118 61 97.9952Z" fill="white"/>
<path d="M61 63C65.4183 63 69 59.4183 69 55C69 50.5817 65.4183 47 61 47C56.5817 47 53 50.5817 53 55C53 59.4183 56.5817 63 61 63Z" fill="#DBDBDB"/>
</g>
<defs>
<filter id="filter0_f_2831_24706" x="22" y="20" width="86" height="100" filterUnits="userSpaceOnUse" color-interpolation-filters="sRGB">
<feFlood flood-opacity="0" result="BackgroundImageFix"/>
<feBlend mode="normal" in="SourceGraphic" in2="BackgroundImageFix" result="shape"/>
<feGaussianBlur stdDeviation="5.5" result="effect1_foregroundBlur_2831_24706"/>
</filter>
<clipPath id="clip0_2831_24706">
<rect width="120" height="120" fill="white"/>
</clipPath>
</defs>
</svg>
